Urbanist-Regular.ufo
<glyph name="parenright" format="2">
  <advance width="653.75"/>
  <unicode hex="0029"/>
  <outline>
    <contour>
      <point x="100" y="-112" type="curve"/>
      <point x="250" y="-112" type="line"/>
      <point x="453" y="78"/>
      <point x="534" y="350"/>
      <point x="534" y="644" type="curve" smooth="yes"/>
      <point x="534" y="910"/>
      <point x="434" y="1269"/>
      <point x="250" y="1400" type="curve"/>
      <point x="100" y="1400" type="line"/>
      <point x="266" y="1244"/>
      <point x="376" y="927"/>
      <point x="384" y="644" type="curve" smooth="yes"/>
      <point x="376" y="330"/>
      <point x="266" y="69"/>
    </contour>
  </outline>
</glyph>
<glyph name="plus" format="2">
  <advance width="1160"/>
  <unicode hex="002B"/>
  <outline>
    <contour>
      <point x="505" y="100" type="line"/>
      <point x="655" y="100" type="line"/>
      <point x="655" y="525" type="line"/>
      <point x="1080" y="525" type="line"/>
      <point x="1080" y="675" type="line"/>
      <point x="655" y="675" type="line"/>
      <point x="655" y="1100" type="line"/>
      <point x="505" y="1100" type="line"/>
      <point x="505" y="675" type="line"/>
      <point x="80" y="675" type="line"/>
      <point x="80" y="525" type="line"/>
      <point x="505" y="525" type="line"/>
    </contour>
  </outline>
</glyph>
<glyph name="slash" format="2">
  <advance width="714.75"/>
  <unicode hex="002F"/>
  <outline>
    <contour>
      <point x="635" y="1400" type="line"/>
      <point x="485" y="1400" type="line"/>
      <point x="80" y="-112" type="line"/>
      <point x="230" y="-112" type="line"/>
    </contour>
  </outline>
</glyph>
<glyph name="three" format="2">
  <advance width="986.5"/>
  <unicode hex="0033"/>
  <outline>
    <contour>
      <point x="493" y="-26" type="curve" smooth="yes"/>
      <point x="725" y="-26"/>
      <point x="927" y="163"/>
      <point x="927" y="395" type="curve" smooth="yes"/>
      <point x="927" y="550"/>
      <point x="846" y="688"/>
      <point x="694" y="740" type="curve"/>
      <point x="811" y="785"/>
      <point x="885" y="905"/>
      <point x="885" y="1040" type="curve" smooth="yes"/>
      <point x="885" y="1254"/>
      <point x="696" y="1427"/>
      <point x="485" y="1427" type="curve" smooth="yes"/>
      <point x="270" y="1427"/>
      <point x="76" y="1253"/>
      <point x="76" y="1040" type="curve"/>
      <point x="226" y="1040" type="line"/>
      <point x="226" y="1169"/>
      <point x="355" y="1277"/>
      <point x="486" y="1277" type="curve" smooth="yes"/>
      <point x="616" y="1277"/>
      <point x="735" y="1169"/>
      <point x="735" y="1040" type="curve" smooth="yes"/>
      <point x="735" y="880"/>
      <point x="606" y="796"/>
      <point x="411" y="796" type="curve"/>
      <point x="411" y="673" type="line"/>
      <point x="624" y="673"/>
      <point x="777" y="581"/>
      <point x="777" y="395" type="curve" smooth="yes"/>
      <point x="777" y="246"/>
      <point x="641" y="124"/>
      <point x="493" y="124" type="curve" smooth="yes"/>
      <point x="319" y="124"/>
      <point x="210" y="246"/>
      <point x="210" y="395" type="curve"/>
      <point x="60" y="395" type="line"/>
      <point x="60" y="163"/>
      <point x="238" y="-26"/>
    </contour>
  </outline>
</glyph>
<glyph name="five" format="2">
  <advance width="1110.75"/>
  <unicode hex="0035"/>
  <outline>
    <contour>
      <point x="531" y="-26" type="curve" smooth="yes"/>
      <point x="784" y="-26"/>
      <point x="991" y="181"/>
      <point x="991" y="434" type="curve" smooth="yes"/>
      <point x="991" y="701"/>
      <point x="793" y="891"/>
      <point x="508" y="896" type="curve"/>
      <point x="352" y="896" type="line"/>
      <point x="422" y="1250" type="line"/>
      <point x="959" y="1250" type="line"/>
      <point x="959" y="1400" type="line"/>
      <point x="300" y="1400" type="line"/>
      <point x="167" y="746" type="line"/>
      <point x="509" y="746" type="line" smooth="yes"/>
      <point x="715" y="746"/>
      <point x="841" y="605"/>
      <point x="841" y="434" type="curve" smooth="yes"/>
      <point x="841" y="263"/>
      <point x="701" y="124"/>
      <point x="531" y="124" type="curve" smooth="yes"/>
      <point x="359" y="124"/>
      <point x="220" y="263"/>
      <point x="220" y="434" type="curve"/>
      <point x="70" y="434" type="line"/>
      <point x="70" y="183"/>
      <point x="273" y="-26"/>
    </contour>
  </outline>
</glyph>
<glyph name="six" format="2">
  <advance width="1078.75"/>
  <unicode hex="0036"/>
  <outline>
    <contour>
      <point x="533" y="-26" type="curve" smooth="yes"/>
      <point x="801" y="-26"/>
      <point x="1019" y="193"/>
      <point x="1019" y="459" type="curve" smooth="yes"/>
      <point x="1019" y="786"/>
      <point x="694" y="1006"/>
      <point x="404" y="901" type="curve"/>
      <point x="692" y="1400" type="line"/>
      <point x="517" y="1400" type="line"/>
      <point x="121" y="712" type="line" smooth="yes"/>
      <point x="74" y="624"/>
      <point x="50" y="560"/>
      <point x="50" y="459" type="curve" smooth="yes"/>
      <point x="50" y="192"/>
      <point x="269" y="-26"/>
    </contour>
    <contour>
      <point x="533" y="124" type="curve" smooth="yes"/>
      <point x="356" y="124"/>
      <point x="200" y="269"/>
      <point x="200" y="460" type="curve" smooth="yes"/>
      <point x="200" y="636"/>
      <point x="343" y="793"/>
      <point x="535" y="793" type="curve" smooth="yes"/>
      <point x="720" y="793"/>
      <point x="869" y="643"/>
      <point x="869" y="460" type="curve" smooth="yes"/>
      <point x="869" y="285"/>
      <point x="728" y="124"/>
    </contour>
  </outline>
</glyph>
<glyph name="seven" format="2">
  <advance width="1072.25"/>
  <unicode hex="0037"/>
  <outline>
    <contour>
      <point x="138" y="0" type="line"/>
      <point x="310" y="0" type="line"/>
      <point x="1032" y="1250" type="line"/>
      <point x="1032" y="1400" type="line"/>
      <point x="40" y="1400" type="line"/>
      <point x="40" y="1250" type="line"/>
      <point x="858" y="1250" type="line"/>
    </contour>
  </outline>
</glyph>
<glyph name="equal" format="2">
  <advance width="1160"/>
  <unicode hex="003D"/>
  <outline>
    <contour>
      <point x="80" y="322" type="line"/>
      <point x="1080" y="322" type="line"/>
      <point x="1080" y="472" type="line"/>
      <point x="80" y="472" type="line"/>
    </contour>
    <contour>
      <point x="80" y="728" type="line"/>
      <point x="1080" y="728" type="line"/>
      <point x="1080" y="878" type="line"/>
      <point x="80" y="878" type="line"/>
    </contour>
  </outline>
</glyph>
<glyph name="at" format="2">
  <advance width="1740.625"/>
  <unicode hex="0040"/>
  <outline>
    <contour>
      <point x="871" y="-192" type="curve"/>
      <point x="871" y="-42" type="line"/>
      <point x="517" y="-42"/>
      <point x="230" y="197"/>
      <point x="230" y="551" type="curve" smooth="yes"/>
      <point x="230" y="906"/>
      <point x="519" y="1191"/>
      <point x="871" y="1191" type="curve" smooth="yes"/>
      <point x="1222" y="1191"/>
      <point x="1511" y="905"/>
      <point x="1511" y="551" type="curve" smooth="yes"/>
      <point x="1511" y="411"/>
      <point x="1460" y="234"/>
      <point x="1344" y="234" type="curve" smooth="yes"/>
      <point x="1282" y="234"/>
      <point x="1225" y="280"/>
      <point x="1225" y="343" type="curve" smooth="yes"/>
      <point x="1225" y="909" type="line"/>
      <point x="1105" y="928" type="line"/>
      <point x="1105" y="820" type="line"/>
      <point x="1052" y="898"/>
      <point x="952" y="948"/>
      <point x="841" y="948" type="curve" smooth="yes"/>
      <point x="622" y="948"/>
      <point x="444" y="770"/>
      <point x="444" y="551" type="curve" smooth="yes"/>
      <point x="444" y="331"/>
      <point x="622" y="153"/>
      <point x="841" y="153" type="curve" smooth="yes"/>
      <point x="955" y="153"/>
      <point x="1044" y="205"/>
      <point x="1099" y="286" type="curve"/>
      <point x="1109" y="172"/>
      <point x="1235" y="84"/>
      <point x="1351" y="84" type="curve" smooth="yes"/>
      <point x="1548" y="84"/>
      <point x="1661" y="329"/>
      <point x="1661" y="551" type="curve" smooth="yes"/>
      <point x="1661" y="984"/>
      <point x="1311" y="1341"/>
      <point x="871" y="1341" type="curve" smooth="yes"/>
      <point x="434" y="1341"/>
      <point x="80" y="987"/>
      <point x="80" y="551" type="curve" smooth="yes"/>
      <point x="80" y="115"/>
      <point x="434" y="-192"/>
    </contour>
    <contour>
      <point x="851" y="272" type="curve" smooth="yes"/>
      <point x="700" y="272"/>
      <point x="573" y="395"/>
      <point x="573" y="551" type="curve" smooth="yes"/>
      <point x="573" y="705"/>
      <point x="696" y="828"/>
      <point x="851" y="828" type="curve" smooth="yes"/>
      <point x="1014" y="828"/>
      <point x="1101" y="701"/>
      <point x="1101" y="562" type="curve" smooth="yes"/>
      <point x="1101" y="416"/>
      <point x="1005" y="272"/>
    </contour>
  </outline>
</glyph>
<glyph name="K" format="2">
  <advance width="1076.25"/>
  <unicode hex="004B"/>
  <outline>
    <contour>
      <point x="1031" y="0" type="line"/>
      <point x="482" y="739" type="line"/>
      <point x="1038" y="1400" type="line"/>
      <point x="842" y="1400" type="line"/>
      <point x="270" y="718" type="line"/>
      <point x="270" y="1400" type="line"/>
      <point x="120" y="1400" type="line"/>
      <point x="120" y="0" type="line"/>
      <point x="270" y="0" type="line"/>
      <point x="270" y="484" type="line"/>
      <point x="384" y="621" type="line"/>
      <point x="837" y="0" type="line"/>
    </contour>
  </outline>
</glyph>
<glyph name="M" format="2">
  <advance width="1779"/>
  <unicode hex="004D"/>
  <outline>
    <contour>
      <point x="120" y="0" type="line"/>
      <point x="272" y="0" type="line"/>
      <point x="476" y="1051" type="line"/>
      <point x="841" y="86" type="line"/>
      <point x="937" y="86" type="line"/>
      <point x="1302" y="1051" type="line"/>
      <point x="1506" y="0" type="line"/>
      <point x="1659" y="0" type="line"/>
      <point x="1387" y="1400" type="line"/>
      <point x="1275" y="1400" type="line"/>
      <point x="890" y="383" type="line"/>
      <point x="503" y="1400" type="line"/>
      <point x="391" y="1400" type="line"/>
    </contour>
  </outline>
</glyph>
<glyph name="N" format="2">
  <advance width="1314.75"/>
  <unicode hex="004E"/>
  <outline>
    <contour>
      <point x="139" y="0" type="line"/>
      <point x="289" y="0" type="line"/>
      <point x="289" y="1129" type="line"/>
      <point x="1015" y="0" type="line"/>
      <point x="1176" y="0" type="line"/>
      <point x="1176" y="1400" type="line"/>
      <point x="1026" y="1400" type="line"/>
      <point x="1026" y="271" type="line"/>
      <point x="302" y="1400" type="line"/>
      <point x="139" y="1400" type="line"/>
    </contour>
  </outline>
</glyph>
<glyph name="P" format="2">
  <advance width="1052.5"/>
  <unicode hex="0050"/>
  <outline>
    <contour>
      <point x="120" y="0" type="line"/>
      <point x="270" y="0" type="line"/>
      <point x="270" y="579" type="line"/>
      <point x="573" y="579" type="line" smooth="yes"/>
      <point x="790" y="579"/>
      <point x="973" y="757"/>
      <point x="973" y="990" type="curve" smooth="yes"/>
      <point x="973" y="1219"/>
      <point x="797" y="1400"/>
      <point x="573" y="1400" type="curve" smooth="yes"/>
      <point x="120" y="1400" type="line"/>
    </contour>
    <contour>
      <point x="270" y="729" type="line"/>
      <point x="270" y="1267" type="line"/>
      <point x="560" y="1267" type="line" smooth="yes"/>
      <point x="704" y="1267"/>
      <point x="823" y="1151"/>
      <point x="823" y="998" type="curve" smooth="yes"/>
      <point x="823" y="845"/>
      <point x="704" y="729"/>
      <point x="560" y="729" type="curve" smooth="yes"/>
    </contour>
  </outline>
</glyph>
<glyph name="V" format="2">
  <advance width="1240.25"/>
  <unicode hex="0056"/>
  <outline>
    <contour>
      <point x="528" y="0" type="line"/>
      <point x="711" y="0" type="line"/>
      <point x="1220" y="1400" type="line"/>
      <point x="1061" y="1400" type="line"/>
      <point x="620" y="187" type="line"/>
      <point x="179" y="1400" type="line"/>
      <point x="20" y="1400" type="line"/>
    </contour>
  </outline>
</glyph>
<glyph name="bracketleft" format="2">
  <advance width="548.5"/>
  <unicode hex="005B"/>
  <outline>
    <contour>
      <point x="449" y="38" type="line"/>
      <point x="270" y="38" type="line"/>
      <point x="270" y="1250" type="line"/>
      <point x="449" y="1250" type="line"/>
      <point x="449" y="1400" type="line"/>
      <point x="120" y="1400" type="line"/>
      <point x="120" y="-112" type="line"/>
      <point x="449" y="-112" type="line"/>
    </contour>
  </outline>
</glyph>
<glyph name="a" format="2">
  <advance width="1216.25"/>
  <unicode hex="0061"/>
  <outline>
    <contour>
      <point x="946" y="1000" type="line"/>
      <point x="952" y="819" type="line"/>
      <point x="879" y="943"/>
      <point x="755" y="1028"/>
      <point x="591" y="1028" type="curve"/>
      <point x="303" y="1028"/>
      <point x="70" y="794"/>
      <point x="71" y="505" type="curve"/>
      <point x="70" y="212"/>
      <point x="308" y="-26"/>
      <point x="601" y="-26" type="curve"/>
      <point x="760" y="-26"/>
      <point x="877" y="56"/>
      <point x="941" y="180" type="curve"/>
      <point x="946" y="0" type="line"/>
      <point x="1096" y="0" type="line"/>
      <point x="1096" y="1000" type="line"/>
    </contour>
    <contour>
      <point x="605" y="120" type="curve"/>
      <point x="405" y="120"/>
      <point x="230" y="285"/>
      <point x="222" y="495" type="curve"/>
      <point x="216" y="709"/>
      <point x="381" y="882"/>
      <point x="590" y="882" type="curve"/>
      <point x="793" y="882"/>
      <point x="928" y="716"/>
      <point x="935" y="505" type="curve"/>
      <point x="941" y="294"/>
      <point x="815" y="120"/>
    </contour>
  </outline>
</glyph>
<glyph name="e" format="2">
  <advance width="1118.75"/>
  <unicode hex="0065"/>
  <outline>
    <contour>
      <point x="560" y="-26" type="curve" smooth="yes"/>
      <point x="760" y="-26"/>
      <point x="932" y="98"/>
      <point x="1012" y="276" type="curve"/>
      <point x="860" y="311" type="line"/>
      <point x="796" y="195"/>
      <point x="688" y="124"/>
      <point x="560" y="124" type="curve" smooth="yes"/>
      <point x="381" y="125"/>
      <point x="242" y="261"/>
      <point x="219" y="444" type="curve"/>
      <point x="1055" y="444" type="line"/>
      <point x="1074" y="772"/>
      <point x="858" y="1028"/>
      <point x="560" y="1028" type="curve" smooth="yes"/>
      <point x="284" y="1028"/>
      <point x="60" y="792"/>
      <point x="60" y="500" type="curve" smooth="yes"/>
      <point x="60" y="210"/>
      <point x="284" y="-26"/>
    </contour>
    <contour>
      <point x="215" y="564" type="line"/>
      <point x="236" y="748"/>
      <point x="379" y="893"/>
      <point x="560" y="893" type="curve" smooth="yes"/>
      <point x="740" y="893"/>
      <point x="888" y="743"/>
      <point x="904" y="564" type="curve"/>
    </contour>
  </outline>
</glyph>
<glyph name="j" format="2">
  <advance width="485.75"/>
  <unicode hex="006A"/>
  <outline>
    <contour>
      <point x="-80" y="-500" type="curve"/>
      <point x="151" y="-500"/>
      <point x="326" y="-323"/>
      <point x="326" y="-103" type="curve"/>
      <point x="326" y="1000" type="line"/>
      <point x="176" y="1000" type="line"/>
      <point x="176" y="-103" type="line"/>
      <point x="176" y="-243"/>
      <point x="65" y="-350"/>
      <point x="-80" y="-350" type="curve"/>
      <point x="-80" y="-350"/>
      <point x="-80" y="-500"/>
    </contour>
    <contour>
      <point x="251" y="1163" type="curve"/>
      <point x="297" y="1163"/>
      <point x="336" y="1201"/>
      <point x="336" y="1246" type="curve"/>
      <point x="336" y="1293"/>
      <point x="297" y="1331"/>
      <point x="251" y="1331" type="curve"/>
      <point x="204" y="1331"/>
      <point x="167" y="1293"/>
      <point x="167" y="1246" type="curve"/>
      <point x="167" y="1201"/>
      <point x="204" y="1163"/>
    </contour>
  </outline>
</glyph>
<glyph name="s" format="2">
  <advance width="880.25"/>
  <unicode hex="0073"/>
  <outline>
    <contour>
      <point x="438" y="-19" type="curve" smooth="yes"/>
      <point x="634" y="-27"/>
      <point x="818" y="93"/>
      <point x="818" y="275" type="curve" smooth="yes"/>
      <point x="820" y="443"/>
      <point x="653" y="516"/>
      <point x="471" y="574" type="curve" smooth="yes"/>
      <point x="336" y="617"/>
      <point x="228" y="630"/>
      <point x="228" y="738" type="curve" smooth="yes"/>
      <point x="228" y="845"/>
      <point x="336" y="904"/>
      <point x="461" y="901" type="curve" smooth="yes"/>
      <point x="560" y="899"/>
      <point x="664" y="847"/>
      <point x="699" y="769" type="curve"/>
      <point x="820" y="841" type="line"/>
      <point x="758" y="958"/>
      <point x="614" y="1034"/>
      <point x="452" y="1034" type="curve" smooth="yes"/>
      <point x="260" y="1034"/>
      <point x="86" y="919"/>
      <point x="86" y="735" type="curve" smooth="yes"/>
      <point x="86" y="562"/>
      <point x="234" y="494"/>
      <point x="444" y="438" type="curve" smooth="yes"/>
      <point x="555" y="407"/>
      <point x="677" y="379"/>
      <point x="677" y="273" type="curve" smooth="yes"/>
      <point x="677" y="173"/>
      <point x="568" y="113"/>
      <point x="451" y="113" type="curve" smooth="yes"/>
      <point x="343" y="113"/>
      <point x="221" y="176"/>
      <point x="190" y="252" type="curve"/>
      <point x="60" y="196" type="line"/>
      <point x="110" y="72"/>
      <point x="274" y="-14"/>
    </contour>
  </outline>
</glyph>
<glyph name="t" format="2">
  <advance width="692.5"/>
  <unicode hex="0074"/>
  <outline>
    <contour>
      <point x="634" y="850" type="line"/>
      <point x="634" y="1000" type="line"/>
      <point x="399" y="1000" type="line"/>
      <point x="398" y="1314" type="line"/>
      <point x="248" y="1314" type="line"/>
      <point x="249" y="1000" type="line"/>
      <point x="71" y="1000" type="line"/>
      <point x="71" y="850" type="line"/>
      <point x="249" y="850" type="line"/>
      <point x="248" y="0" type="line"/>
      <point x="398" y="0" type="line"/>
      <point x="399" y="850" type="line"/>
    </contour>
  </outline>
</glyph>
<glyph name="u" format="2">
  <advance width="1144.75"/>
  <unicode hex="0075"/>
  <outline>
    <contour>
      <point x="120" y="466" type="line"/>
      <point x="123" y="200"/>
      <point x="299" y="-27"/>
      <point x="557" y="-27" type="curve"/>
      <point x="690" y="-27"/>
      <point x="800" y="46"/>
      <point x="875" y="163" type="curve"/>
      <point x="875" y="0" type="line"/>
      <point x="1025" y="0" type="line"/>
      <point x="1025" y="1000" type="line"/>
      <point x="875" y="1000" type="line"/>
      <point x="875" y="470" type="line"/>
      <point x="875" y="277"/>
      <point x="748" y="120"/>
      <point x="577" y="120" type="curve"/>
      <point x="404" y="120"/>
      <point x="270" y="277"/>
      <point x="270" y="470" type="curve"/>
      <point x="270" y="1000" type="line"/>
      <point x="120" y="1000" type="line"/>
    </contour>
  </outline>
</glyph>
<glyph name="bar" format="2">
  <advance width="430"/>
  <unicode hex="007C"/>
  <outline>
    <contour>
      <point x="140" y="1400" type="line"/>
      <point x="140" y="-302" type="line"/>
      <point x="290" y="-302" type="line"/>
      <point x="290" y="1400" type="line"/>
    </contour>
  </outline>
</glyph>
<glyph name="exclamdown" format="2">
  <advance width="343"/>
  <unicode hex="00A1"/>
  <outline>
    <contour>
      <point x="163" y="1026" type="curve"/>
      <point x="117" y="1026"/>
      <point x="80" y="989"/>
      <point x="80" y="940" type="curve"/>
      <point x="80" y="895"/>
      <point x="117" y="857"/>
      <point x="163" y="857" type="curve"/>
      <point x="211" y="857"/>
      <point x="248" y="895"/>
      <point x="248" y="940" type="curve"/>
      <point x="248" y="989"/>
      <point x="211" y="1026"/>
    </contour>
    <contour>
      <point x="229" y="580" type="line"/>
      <point x="98" y="580" type="line"/>
      <point x="98" y="-400" type="line"/>
      <point x="229" y="-400" type="line"/>
    </contour>
  </outline>
</glyph>
<glyph name="cent" format="2">
  <advance width="1092"/>
  <unicode hex="00A2"/>
  <outline>
    <contour>
      <point x="523" y="0" type="line"/>
      <point x="636" y="0" type="line"/>
      <point x="636" y="203" type="line"/>
      <point x="795" y="219"/>
      <point x="933" y="310"/>
      <point x="1012" y="440" type="curve"/>
      <point x="882" y="515" type="line"/>
      <point x="819" y="414"/>
      <point x="701" y="348"/>
      <point x="582" y="348" type="curve" smooth="yes"/>
      <point x="392" y="348"/>
      <point x="230" y="504"/>
      <point x="230" y="702" type="curve" smooth="yes"/>
      <point x="230" y="896"/>
      <point x="390" y="1054"/>
      <point x="582" y="1054" type="curve" smooth="yes"/>
      <point x="701" y="1054"/>
      <point x="819" y="988"/>
      <point x="882" y="887" type="curve"/>
      <point x="1012" y="962" type="line"/>
      <point x="933" y="1093"/>
      <point x="795" y="1184"/>
      <point x="636" y="1199" type="curve"/>
      <point x="636" y="1400" type="line"/>
      <point x="523" y="1400" type="line"/>
      <point x="523" y="1199" type="line"/>
      <point x="274" y="1171"/>
      <point x="80" y="959"/>
      <point x="80" y="702" type="curve" smooth="yes"/>
      <point x="80" y="444"/>
      <point x="274" y="232"/>
      <point x="523" y="203" type="curve"/>
    </contour>
  </outline>
</glyph>
<glyph name="logicalnot" format="2">
  <advance width="977.5"/>
  <unicode hex="00AC"/>
  <outline>
    <contour>
      <point x="748" y="313" type="line"/>
      <point x="898" y="313" type="line"/>
      <point x="898" y="888" type="line"/>
      <point x="80" y="888" type="line"/>
      <point x="80" y="738" type="line"/>
      <point x="748" y="738" type="line"/>
    </contour>
  </outline>
</glyph>
<glyph name="registered" format="2">
  <advance width="1007.75"/>
  <unicode hex="00AE"/>
  <outline>
    <contour>
      <point x="504" y="457" type="curve" smooth="yes"/>
      <point x="748" y="458"/>
      <point x="948" y="658"/>
      <point x="948" y="901" type="curve" smooth="yes"/>
      <point x="948" y="1137"/>
      <point x="754" y="1344"/>
      <point x="504" y="1344" type="curve" smooth="yes"/>
      <point x="258" y="1344"/>
      <point x="60" y="1143"/>
      <point x="60" y="901" type="curve" smooth="yes"/>
      <point x="60" y="659"/>
      <point x="256" y="458"/>
    </contour>
    <contour>
      <point x="504" y="573" type="curve" smooth="yes"/>
      <point x="324" y="573"/>
      <point x="176" y="720"/>
      <point x="176" y="901" type="curve" smooth="yes"/>
      <point x="176" y="1081"/>
      <point x="324" y="1228"/>
      <point x="504" y="1228" type="curve" smooth="yes"/>
      <point x="684" y="1228"/>
      <point x="832" y="1081"/>
      <point x="832" y="901" type="curve" smooth="yes"/>
      <point x="832" y="720"/>
      <point x="684" y="573"/>
    </contour>
    <contour>
      <point x="380" y="708" type="line"/>
      <point x="459" y="708" type="line"/>
      <point x="459" y="868" type="line"/>
      <point x="486" y="868" type="line"/>
      <point x="579" y="708" type="line"/>
      <point x="670" y="708" type="line"/>
      <point x="572" y="877" type="line"/>
      <point x="617" y="892"/>
      <point x="648" y="937"/>
      <point x="648" y="989" type="curve" smooth="yes"/>
      <point x="648" y="1057"/>
      <point x="596" y="1111"/>
      <point x="532" y="1111" type="curve" smooth="yes"/>
      <point x="380" y="1111" type="line"/>
    </contour>
    <contour>
      <point x="459" y="947" type="line"/>
      <point x="459" y="1032" type="line"/>
      <point x="532" y="1032" type="line" smooth="yes"/>
      <point x="552" y="1032"/>
      <point x="569" y="1013"/>
      <point x="569" y="989" type="curve" smooth="yes"/>
      <point x="569" y="966"/>
      <point x="552" y="947"/>
      <point x="532" y="947" type="curve" smooth="yes"/>
    </contour>
  </outline>
</glyph>
<glyph name="threesuperior" format="2">
  <advance width="558"/>
  <unicode hex="00B3"/>
  <outline>
    <contour>
      <point x="280" y="798" type="curve" smooth="yes"/>
      <point x="393" y="798"/>
      <point x="486" y="880"/>
      <point x="486" y="995" type="curve" smooth="yes"/>
      <point x="486" y="1064"/>
      <point x="460" y="1109"/>
      <point x="409" y="1151" type="curve"/>
      <point x="442" y="1176"/>
      <point x="468" y="1231"/>
      <point x="468" y="1286" type="curve" smooth="yes"/>
      <point x="468" y="1392"/>
      <point x="382" y="1467"/>
      <point x="275" y="1467" type="curve" smooth="yes"/>
      <point x="169" y="1467"/>
      <point x="83" y="1392"/>
      <point x="83" y="1286" type="curve"/>
      <point x="191" y="1286" type="line"/>
      <point x="191" y="1332"/>
      <point x="230" y="1363"/>
      <point x="275" y="1363" type="curve" smooth="yes"/>
      <point x="321" y="1363"/>
      <point x="360" y="1332"/>
      <point x="360" y="1286" type="curve" smooth="yes"/>
      <point x="360" y="1230"/>
      <point x="320" y="1190"/>
      <point x="235" y="1190" type="curve"/>
      <point x="235" y="1106" type="line"/>
      <point x="327" y="1106"/>
      <point x="378" y="1059"/>
      <point x="378" y="995" type="curve" smooth="yes"/>
      <point x="378" y="939"/>
      <point x="335" y="902"/>
      <point x="280" y="902" type="curve" smooth="yes"/>
      <point x="223" y="902"/>
      <point x="180" y="939"/>
      <point x="180" y="995" type="curve"/>
      <point x="72" y="995" type="line"/>
      <point x="72" y="880"/>
      <point x="166" y="798"/>
    </contour>
  </outline>
</glyph>
<glyph name="germandbls" format="2">
  <advance width="1076"/>
  <unicode hex="00DF"/>
  <outline>
    <contour>
      <point x="120" y="0" type="line"/>
      <point x="270" y="0" type="line"/>
      <point x="270" y="978" type="line" smooth="yes"/>
      <point x="270" y="1137"/>
      <point x="399" y="1265"/>
      <point x="558" y="1265" type="curve" smooth="yes"/>
      <point x="687" y="1265"/>
      <point x="793" y="1154"/>
      <point x="793" y="1017" type="curve" smooth="yes"/>
      <point x="793" y="880"/>
      <point x="687" y="773"/>
      <point x="558" y="768" type="curve" smooth="yes"/>
      <point x="531" y="766" type="line"/>
      <point x="531" y="638" type="line"/>
      <point x="621" y="637" type="line" smooth="yes"/>
      <point x="764" y="634"/>
      <point x="879" y="524"/>
      <point x="879" y="385" type="curve" smooth="yes"/>
      <point x="879" y="247"/>
      <point x="764" y="133"/>
      <point x="621" y="133" type="curve" smooth="yes"/>
      <point x="531" y="133" type="line"/>
      <point x="559" y="0" type="line"/>
      <point x="633" y="0" type="line" smooth="yes"/>
      <point x="844" y="0"/>
      <point x="1016" y="165"/>
      <point x="1016" y="377" type="curve" smooth="yes"/>
      <point x="1016" y="526"/>
      <point x="942" y="681"/>
      <point x="781" y="718" type="curve"/>
      <point x="887" y="775"/>
      <point x="943" y="897"/>
      <point x="943" y="1017" type="curve" smooth="yes"/>
      <point x="943" y="1231"/>
      <point x="778" y="1399"/>
      <point x="571" y="1399" type="curve" smooth="yes"/>
      <point x="321" y="1399"/>
      <point x="120" y="1196"/>
      <point x="120" y="948" type="curve" smooth="yes"/>
    </contour>
  </outline>
</glyph>
<glyph name="idieresis" format="2">
  <advance width="616"/>
  <unicode hex="00EF"/>
  <outline>
    <contour>
      <point x="231" y="1000" type="line"/>
      <point x="231" y="0" type="line"/>
      <point x="381" y="0" type="line"/>
      <point x="381" y="1000" type="line"/>
    </contour>
    <component base="dieresiscomb" xOffset="-340"/>
  </outline>
</glyph>
<glyph name="caron" format="2">
  <advance width="579.5"/>
  <unicode hex="02C7"/>
  <outline>
    <contour>
      <point x="221" y="1166" type="line"/>
      <point x="360" y="1166" type="line"/>
      <point x="460" y="1400" type="line"/>
      <point x="356" y="1400" type="line"/>
      <point x="291" y="1242" type="line"/>
      <point x="223" y="1400" type="line"/>
      <point x="120" y="1400" type="line"/>
    </contour>
  </outline>
</glyph>
<glyph name="ogonek" format="2">
  <advance width="1115"/>
  <unicode hex="02DB"/>
  <outline>
    <contour>
      <point x="622" y="-387" type="curve" smooth="yes"/>
      <point x="687" y="-387" type="line"/>
      <point x="687" y="-268" type="line"/>
      <point x="620" y="-268" type="line" smooth="yes"/>
      <point x="493" y="-268"/>
      <point x="381" y="-157"/>
      <point x="381" y="-30" type="curve" smooth="yes"/>
      <point x="381" y="62" type="line"/>
      <point x="262" y="62" type="line"/>
      <point x="262" y="-28" type="line" smooth="yes"/>
      <point x="262" y="-227"/>
      <point x="423" y="-387"/>
    </contour>
  </outline>
</glyph>
<glyph name="gravecomb" format="2">
  <unicode hex="0300"/>
  <outline>
    <contour>
      <point x="320" y="1426" type="line"/>
      <point x="478" y="1138" type="line"/>
      <point x="550" y="1138" type="line"/>
      <point x="470" y="1426" type="line"/>
    </contour>
  </outline>
</glyph>
<glyph name="circumflexcomb" format="2">
  <unicode hex="0302"/>
  <outline>
    <contour>
      <point x="501" y="1400" type="line"/>
      <point x="400" y="1166" type="line"/>
      <point x="503" y="1166" type="line"/>
      <point x="571" y="1324" type="line"/>
      <point x="636" y="1166" type="line"/>
      <point x="740" y="1166" type="line"/>
      <point x="640" y="1400" type="line"/>
    </contour>
  </outline>
</glyph>
<glyph name="dieresiscomb" format="2">
  <unicode hex="0308"/>
  <outline>
    <contour>
      <point x="487" y="1190" type="curve" smooth="yes"/>
      <point x="534" y="1190"/>
      <point x="572" y="1226"/>
      <point x="572" y="1274" type="curve" smooth="yes"/>
      <point x="572" y="1321"/>
      <point x="534" y="1359"/>
      <point x="487" y="1359" type="curve" smooth="yes"/>
      <point x="439" y="1359"/>
      <point x="400" y="1321"/>
      <point x="400" y="1274" type="curve" smooth="yes"/>
      <point x="400" y="1226"/>
      <point x="439" y="1190"/>
    </contour>
    <contour>
      <point x="810" y="1190" type="curve" smooth="yes"/>
      <point x="856" y="1190"/>
      <point x="895" y="1226"/>
      <point x="895" y="1274" type="curve" smooth="yes"/>
      <point x="895" y="1321"/>
      <point x="856" y="1359"/>
      <point x="810" y="1359" type="curve" smooth="yes"/>
      <point x="761" y="1359"/>
      <point x="723" y="1321"/>
      <point x="723" y="1274" type="curve" smooth="yes"/>
      <point x="723" y="1226"/>
      <point x="761" y="1190"/>
    </contour>
  </outline>
</glyph>
<glyph name="cedillacomb" format="2">
  <unicode hex="0327"/>
  <outline>
    <contour>
      <point x="400" y="-306" type="line"/>
      <point x="465" y="-306" type="line" smooth="yes"/>
      <point x="664" y="-306"/>
      <point x="825" y="-145"/>
      <point x="825" y="53" type="curve" smooth="yes"/>
      <point x="825" y="118" type="line"/>
      <point x="706" y="118" type="line"/>
      <point x="706" y="52" type="line" smooth="yes"/>
      <point x="706" y="-75"/>
      <point x="594" y="-187"/>
      <point x="467" y="-187" type="curve" smooth="yes"/>
      <point x="400" y="-187" type="line"/>
    </contour>
  </outline>
</glyph>
<glyph name="emdash" format="2">
  <advance width="2040"/>
  <unicode hex="2014"/>
  <outline>
    <contour>
      <point x="120" y="675" type="line"/>
      <point x="120" y="525" type="line"/>
      <point x="1920" y="525" type="line"/>
      <point x="1920" y="675" type="line"/>
    </contour>
  </outline>
</glyph>
<glyph name="primeReversed" format="2">
  <advance width="452"/>
  <unicode hex="2035"/>
  <outline>
    <contour>
      <point x="232" y="878" type="line"/>
      <point x="332" y="878" type="line"/>
      <point x="270" y="1400" type="line"/>
      <point x="120" y="1400" type="line"/>
    </contour>
  </outline>
</glyph>
<glyph name="eightsuperior" format="2">
  <advance width="609.125"/>
  <unicode hex="2078"/>
  <outline>
    <contour>
      <point x="303" y="798" type="curve" smooth="yes"/>
      <point x="420" y="798"/>
      <point x="513" y="878"/>
      <point x="513" y="993" type="curve" smooth="yes"/>
      <point x="513" y="1057"/>
      <point x="484" y="1113"/>
      <point x="439" y="1150" type="curve"/>
      <point x="475" y="1184"/>
      <point x="498" y="1234"/>
      <point x="498" y="1285" type="curve" smooth="yes"/>
      <point x="498" y="1394"/>
      <point x="411" y="1469"/>
      <point x="303" y="1469" type="curve" smooth="yes"/>
      <point x="197" y="1469"/>
      <point x="111" y="1394"/>
      <point x="111" y="1285" type="curve" smooth="yes"/>
      <point x="111" y="1234"/>
      <point x="135" y="1184"/>
      <point x="170" y="1150" type="curve"/>
      <point x="126" y="1113"/>
      <point x="96" y="1057"/>
      <point x="96" y="993" type="curve" smooth="yes"/>
      <point x="96" y="878"/>
      <point x="190" y="798"/>
    </contour>
    <contour>
      <point x="303" y="901" type="curve" smooth="yes"/>
      <point x="249" y="901"/>
      <point x="204" y="939"/>
      <point x="204" y="993" type="curve" smooth="yes"/>
      <point x="204" y="1048"/>
      <point x="249" y="1093"/>
      <point x="303" y="1093" type="curve" smooth="yes"/>
      <point x="360" y="1093"/>
      <point x="405" y="1048"/>
      <point x="405" y="993" type="curve" smooth="yes"/>
      <point x="405" y="939"/>
      <point x="360" y="901"/>
    </contour>
    <contour>
      <point x="303" y="1201" type="curve" smooth="yes"/>
      <point x="258" y="1201"/>
      <point x="219" y="1240"/>
      <point x="219" y="1285" type="curve" smooth="yes"/>
      <point x="219" y="1334"/>
      <point x="258" y="1365"/>
      <point x="303" y="1365" type="curve" smooth="yes"/>
      <point x="352" y="1365"/>
      <point x="390" y="1334"/>
      <point x="390" y="1285" type="curve" smooth="yes"/>
      <point x="390" y="1240"/>
      <point x="352" y="1201"/>
    </contour>
  </outline>
</glyph>
<glyph name="fourinferior" format="2">
  <advance width="682.25"/>
  <unicode hex="2084"/>
  <outline>
    <contour>
      <point x="361" y="0" type="line"/>
      <point x="469" y="0" type="line"/>
      <point x="469" y="119" type="line"/>
      <point x="538" y="119" type="line"/>
      <point x="538" y="227" type="line"/>
      <point x="469" y="227" type="line"/>
      <point x="469" y="631" type="line"/>
      <point x="338" y="631" type="line"/>
      <point x="96" y="249" type="line"/>
      <point x="96" y="119" type="line"/>
      <point x="361" y="119" type="line"/>
    </contour>
    <contour>
      <point x="205" y="227" type="line"/>
      <point x="367" y="483" type="line"/>
      <point x="367" y="227" type="line"/>
    </contour>
  </outline>
</glyph>
<glyph name="fiveinferior" format="2">
  <advance width="683.5"/>
  <unicode hex="2085"/>
  <outline>
    <contour>
      <point x="311" y="-31" type="curve"/>
      <point x="437" y="-31"/>
      <point x="540" y="62"/>
      <point x="540" y="189" type="curve"/>
      <point x="540" y="314"/>
      <point x="448" y="414"/>
      <point x="313" y="414" type="curve"/>
      <point x="244" y="410" type="line"/>
      <point x="251" y="523" type="line"/>
      <point x="499" y="523" type="line"/>
      <point x="499" y="622" type="line"/>
      <point x="153" y="622" type="line"/>
      <point x="122" y="285" type="line"/>
      <point x="311" y="306" type="line"/>
      <point x="377" y="306"/>
      <point x="432" y="254"/>
      <point x="432" y="189" type="curve"/>
      <point x="432" y="123"/>
      <point x="377" y="77"/>
      <point x="311" y="77" type="curve"/>
      <point x="246" y="77"/>
      <point x="192" y="123"/>
      <point x="192" y="189" type="curve"/>
      <point x="84" y="189" type="line"/>
      <point x="84" y="62"/>
      <point x="186" y="-31"/>
    </contour>
  </outline>
</glyph>
<glyph name="sixinferior" format="2">
  <advance width="682"/>
  <unicode hex="2086"/>
  <outline>
    <contour>
      <point x="329" y="-31" type="curve" smooth="yes"/>
      <point x="453" y="-31"/>
      <point x="562" y="59"/>
      <point x="562" y="193" type="curve" smooth="yes"/>
      <point x="562" y="321"/>
      <point x="454" y="430"/>
      <point x="315" y="420" type="curve"/>
      <point x="433" y="623" type="line"/>
      <point x="307" y="623" type="line"/>
      <point x="126" y="314"/>
      <point x="96" y="271"/>
      <point x="96" y="195" type="curve" smooth="yes"/>
      <point x="96" y="68"/>
      <point x="195" y="-31"/>
    </contour>
    <contour>
      <point x="329" y="77" type="curve" smooth="yes"/>
      <point x="264" y="77"/>
      <point x="208" y="118"/>
      <point x="205" y="186" type="curve" smooth="yes"/>
      <point x="202" y="256"/>
      <point x="254" y="318"/>
      <point x="329" y="318" type="curve" smooth="yes"/>
      <point x="390" y="318"/>
      <point x="450" y="272"/>
      <point x="453" y="200" type="curve" smooth="yes"/>
      <point x="457" y="129"/>
      <point x="400" y="77"/>
    </contour>
  </outline>
</glyph>
<glyph name="leftArrow" format="2">
  <advance width="1373.5"/>
  <unicode hex="2190"/>
  <outline>
    <contour>
      <point x="578" y="252" type="line"/>
      <point x="684" y="358" type="line"/>
      <point x="367" y="675" type="line"/>
      <point x="1294" y="675" type="line"/>
      <point x="1294" y="825" type="line"/>
      <point x="367" y="825" type="line"/>
      <point x="684" y="1143" type="line"/>
      <point x="578" y="1248" type="line"/>
      <point x="80" y="750" type="line"/>
    </contour>
  </outline>
</glyph>
<glyph name="radical" format="2">
  <advance width="1291.75"/>
  <unicode hex="221A"/>
  <outline>
    <contour>
      <point x="872" y="1400" type="line"/>
      <point x="430" y="189" type="line"/>
      <point x="239" y="708" type="line"/>
      <point x="80" y="708" type="line"/>
      <point x="338" y="0" type="line"/>
      <point x="520" y="0" type="line"/>
      <point x="977" y="1250" type="line"/>
      <point x="1212" y="1250" type="line"/>
      <point x="1212" y="1400" type="line"/>
    </contour>
  </outline>
</glyph>
